<svg xmlns="http://www.w3.org/2000/svg" viewBox="0 0 100 100" fill="none">
  <circle cx="50" cy="50" r="39" fill="none" stroke="#5b8def" stroke-width="2.4"/>
  <circle cx="50" cy="50" r="11.5" fill="none" stroke="#5b8def" stroke-width="1.8"/>
  <line x1="50.00" y1="38.50" x2="50.00" y2="12.20" stroke="#5b8def" stroke-width="1.15" stroke-linecap="round"/>
  <line x1="52.98" y1="38.89" x2="59.78" y2="13.49" stroke="#5b8def" stroke-width="1.15" stroke-linecap="round"/>
  <line x1="55.75" y1="40.04" x2="68.90" y2="17.26" stroke="#5b8def" stroke-width="1.15" stroke-linecap="round"/>
  <line x1="58.13" y1="41.87" x2="76.73" y2="23.27" stroke="#5b8def" stroke-width="1.15" stroke-linecap="round"/>
  <line x1="59.96" y1="44.25" x2="82.74" y2="31.10" stroke="#5b8def" stroke-width="1.15" stroke-linecap="round"/>
  <line x1="61.11" y1="47.02" x2="86.51" y2="40.22" stroke="#5b8def" stroke-width="1.15" stroke-linecap="round"/>
  <line x1="61.50" y1="50.00" x2="87.80" y2="50.00" stroke="#5b8def" stroke-width="1.15" stroke-linecap="round"/>
  <line x1="61.11" y1="52.98" x2="86.51" y2="59.78" stroke="#5b8def" stroke-width="1.15" stroke-linecap="round"/>
  <line x1="59.96" y1="55.75" x2="82.74" y2="68.90" stroke="#5b8def" stroke-width="1.15" stroke-linecap="round"/>
  <line x1="58.13" y1="58.13" x2="76.73" y2="76.73" stroke="#5b8def" stroke-width="1.15" stroke-linecap="round"/>
  <line x1="55.75" y1="59.96" x2="68.90" y2="82.74" stroke="#5b8def" stroke-width="1.15" stroke-linecap="round"/>
  <line x1="52.98" y1="61.11" x2="59.78" y2="86.51" stroke="#5b8def" stroke-width="1.15" stroke-linecap="round"/>
  <line x1="50.00" y1="61.50" x2="50.00" y2="87.80" stroke="#5b8def" stroke-width="1.15" stroke-linecap="round"/>
  <line x1="47.02" y1="61.11" x2="40.22" y2="86.51" stroke="#5b8def" stroke-width="1.15" stroke-linecap="round"/>
  <line x1="44.25" y1="59.96" x2="31.10" y2="82.74" stroke="#5b8def" stroke-width="1.15" stroke-linecap="round"/>
  <line x1="41.87" y1="58.13" x2="23.27" y2="76.73" stroke="#5b8def" stroke-width="1.15" stroke-linecap="round"/>
  <line x1="40.04" y1="55.75" x2="17.26" y2="68.90" stroke="#5b8def" stroke-width="1.15" stroke-linecap="round"/>
  <line x1="38.89" y1="52.98" x2="13.49" y2="59.78" stroke="#5b8def" stroke-width="1.15" stroke-linecap="round"/>
  <line x1="38.50" y1="50.00" x2="12.20" y2="50.00" stroke="#5b8def" stroke-width="1.15" stroke-linecap="round"/>
  <line x1="38.89" y1="47.02" x2="13.49" y2="40.22" stroke="#5b8def" stroke-width="1.15" stroke-linecap="round"/>
  <line x1="40.04" y1="44.25" x2="17.26" y2="31.10" stroke="#5b8def" stroke-width="1.15" stroke-linecap="round"/>
  <line x1="41.87" y1="41.87" x2="23.27" y2="23.27" stroke="#5b8def" stroke-width="1.15" stroke-linecap="round"/>
  <line x1="44.25" y1="40.04" x2="31.10" y2="17.26" stroke="#5b8def" stroke-width="1.15" stroke-linecap="round"/>
  <line x1="47.02" y1="38.89" x2="40.22" y2="13.49" stroke="#5b8def" stroke-width="1.15" stroke-linecap="round"/>
  <line x1="76.87" y1="23.13" x2="84.29" y2="15.71" stroke="#f2a623" stroke-width="3.4" stroke-linecap="round"/>
  <circle cx="84.29" cy="15.71" r="2.0" fill="#f2a623"/>
  <line x1="23.13" y1="23.13" x2="15.71" y2="15.71" stroke="#f2a623" stroke-width="3.4" stroke-linecap="round"/>
  <circle cx="15.71" cy="15.71" r="2.0" fill="#f2a623"/>
  <line x1="76.87" y1="76.87" x2="84.29" y2="84.29" stroke="#2e9e6b" stroke-width="3.4" stroke-linecap="round"/>
  <circle cx="84.29" cy="84.29" r="2.0" fill="#2e9e6b"/>
  <line x1="23.13" y1="76.87" x2="15.71" y2="84.29" stroke="#2e9e6b" stroke-width="3.4" stroke-linecap="round"/>
  <circle cx="15.71" cy="84.29" r="2.0" fill="#2e9e6b"/>
  <circle cx="50" cy="50" r="7" fill="#0d1219" stroke="#5dcaa5" stroke-width="1.6"/>
  <circle cx="50" cy="50" r="3" fill="#5dcaa5"/>
</svg>
